<svg xmlns="http://www.w3.org/2000/svg" xmlns:xlink="http://www.w3.org/1999/xlink" width="199.699" height="75.188" viewBox="0 0 199.699 75.188">
  <defs>
    <clipPath id="clip-path">
      <rect width="199.699" height="75.188" fill="none"/>
    </clipPath>
  </defs>
  <g id="Cuadrícula_de_repetición_1" data-name="Cuadrícula de repetición 1" clip-path="url(#clip-path)">
    <g id="Grupo_19" data-name="Grupo 19" transform="translate(-524.229 -1128.408)">
      <g id="Grupo_17" data-name="Grupo 17" transform="translate(524.229 1131.02)">
        <g id="Grupo_16" data-name="Grupo 16">
          <path id="Trazado_13" data-name="Trazado 13" d="M531.376,1130.771l.236,2.9a10.491,10.491,0,0,1,8.17-3.36q4.52,0,6.728,2.341t2.259,6.994v16.2h-7.595v-16.033a4.014,4.014,0,0,0-1.05-3.093,5.127,5.127,0,0,0-3.494-.962,5.391,5.391,0,0,0-4.807,2.409v17.679h-7.593v-25.069Z" transform="translate(-524.229 -1130.309)" fill="#064387"/>
          <path id="Trazado_14" data-name="Trazado 14" d="M553.085,1130.771l.236,2.8a10.581,10.581,0,0,1,8.17-3.267q5.492,0,7.542,3.823a10.2,10.2,0,0,1,8.538-3.823q4.623,0,6.883,2.374t2.261,7.147v16.01H579.1v-15.986a4.371,4.371,0,0,0-.947-3.116,4.533,4.533,0,0,0-3.337-.986,4.761,4.761,0,0,0-4.729,2.873l.026,17.215h-7.592v-15.962a4.325,4.325,0,0,0-.973-3.151,4.579,4.579,0,0,0-3.311-.976,5.061,5.061,0,0,0-4.674,2.365v17.723h-7.595v-25.069Z" transform="translate(-514.866 -1130.309)" fill="#064387"/>
          <path id="Trazado_15" data-name="Trazado 15" d="M586.121,1130.771l.236,2.9a10.49,10.49,0,0,1,8.17-3.36q4.52,0,6.728,2.341t2.259,6.994v16.2h-7.595v-16.033a4.014,4.014,0,0,0-1.05-3.093,5.124,5.124,0,0,0-3.494-.962,5.392,5.392,0,0,0-4.807,2.409v17.679h-7.593v-25.069Z" transform="translate(-500.645 -1130.309)" fill="#064387"/>
          <path id="Trazado_16" data-name="Trazado 16" d="M534.759,1174.046a3.19,3.19,0,0,1,1.22-2.594,5.241,5.241,0,0,1,6.147,0,3.188,3.188,0,0,1,1.223,2.594,3.146,3.146,0,0,1-1.209,2.56,5.32,5.32,0,0,1-6.174,0A3.145,3.145,0,0,1,534.759,1174.046Z" transform="translate(-519.693 -1113.014)" fill="#bdccd4"/>
          <path id="Trazado_17" data-name="Trazado 17" d="M553.093,1157.885l.236,2.8a10.578,10.578,0,0,1,8.17-3.268q5.492,0,7.54,3.823a10.206,10.206,0,0,1,8.539-3.823q4.623,0,6.883,2.374t2.259,7.147v16.011H579.1v-15.986a4.371,4.371,0,0,0-.946-3.116,4.537,4.537,0,0,0-3.337-.986,4.764,4.764,0,0,0-4.73,2.873l.027,17.215h-7.593V1166.99a4.324,4.324,0,0,0-.971-3.151,4.58,4.58,0,0,0-3.311-.976,5.064,5.064,0,0,0-4.676,2.365v17.723h-7.593v-25.067Z" transform="translate(-514.862 -1118.629)" fill="#bdccd4"/>
          <path id="Trazado_18" data-name="Trazado 18" d="M590.629,1165.227l4.782-7.482h8.118l-8.091,12.278,8.433,12.79h-8.146l-5.071-7.878-5.044,7.878H577.44l8.433-12.79-8.065-12.278h8.146Z" transform="translate(-501.306 -1118.49)" fill="#bdccd4"/>
        </g>
      </g>
      <g id="Grupo_18" data-name="Grupo 18" transform="translate(665.385 1147.793)">
        <path id="Trazado_19" data-name="Trazado 19" d="M680.3,1176.983A2.661,2.661,0,0,1,678,1175.57l-15.835-29.988h-.006a3.9,3.9,0,0,0-6.575-.844l-10.821,11.927v-7.393h-.027v-.026a7.21,7.21,0,0,0-7.183-7.213H622.885v1.438h.655a2.5,2.5,0,0,1,2.5,2.5h0v32.479l1.135-.01a2.663,2.663,0,0,0,1.884-.835l0,.016,15.38-18.443a2.5,2.5,0,0,1,4.008.431l9.15,17.32h0a2.869,2.869,0,0,0,2.468,1.514l21.363.009v-1.458Z" transform="translate(-622.885 -1142.032)" fill="#d9e021"/>
      </g>
      <line id="Línea_6" data-name="Línea 6" y2="74.688" transform="translate(648.34 1128.658)" fill="#d9e021" stroke="#ccc" stroke-linecap="round" stroke-miterlimit="10" stroke-width="0.5"/>
    </g>
  </g>
</svg>
