<svg xmlns="http://www.w3.org/2000/svg" width="24.17" height="16.919" viewBox="0 0 24.17 16.919"><path d="M3.626,9.5A2.417,2.417,0,1,0,1.209,7.084,2.419,2.419,0,0,0,3.626,9.5Zm16.919,0a2.417,2.417,0,1,0-2.417-2.417A2.419,2.419,0,0,0,20.545,9.5Zm1.209,1.209H19.336a2.41,2.41,0,0,0-1.7.7,5.524,5.524,0,0,1,2.836,4.132h2.493a1.207,1.207,0,0,0,1.209-1.209V13.127A2.419,2.419,0,0,0,21.753,10.71Zm-9.668,0a4.23,4.23,0,1,0-4.23-4.23A4.228,4.228,0,0,0,12.085,10.71Zm2.9,1.209h-.313a5.84,5.84,0,0,1-5.174,0H9.185a4.352,4.352,0,0,0-4.351,4.351v1.088a1.813,1.813,0,0,0,1.813,1.813H17.524a1.813,1.813,0,0,0,1.813-1.813V16.269A4.352,4.352,0,0,0,14.986,11.918Zm-8.448-.506a2.41,2.41,0,0,0-1.7-.7H2.417A2.419,2.419,0,0,0,0,13.127v1.209a1.207,1.207,0,0,0,1.209,1.209H3.7A5.538,5.538,0,0,1,6.537,11.412Z" transform="translate(0 -2.25)" fill="#6e7e98"/></svg>